{
  "accessors": [
    {
      "bufferView": 2,
      "componentType": 5126,
      "count": 14340,
      "max": [
        30.56021499633789,
        111.59209442138672,
        10.556607246398926
      ],
      "min": [
        -29.230920791625977,
        0.001366618787869811,
        -14.516901016235352
      ],
      "type": "VEC3"
    },
    {
      "bufferView": 2,
      "byteOffset": 172080,
      "componentType": 5126,
      "count": 14340,
      "max": [
        0.9999995231628418,
        1.0,
        1.0
      ],
      "min": [
        -0.9999712705612183,
        -1.0,
        -1.0
      ],
      "type": "VEC3"
    },
    {
      "bufferView": 3,
      "componentType": 5126,
      "count": 14340,
      "max": [
        1.0,
        1.0,
        0.9999901652336121,
        1.0
      ],
      "min": [
        -1.0,
        -0.9999999403953552,
        -0.999994158744812,
        -1.0
      ],
      "type": "VEC4"
    },
    {
      "bufferView": 1,
      "componentType": 5126,
      "count": 14340,
      "max": [
        0.9847091436386108,
        0.9999921321868896
      ],
      "min": [
        3.218650817871094e-05,
        5.900859832763672e-06
      ],
      "type": "VEC2"
    },
    {
      "bufferView": 1,
      "byteOffset": 114720,
      "componentType": 5126,
      "count": 14340,
      "max": [
        0.9847091436386108,
        0.9999921321868896
      ],
      "min": [
        3.218650817871094e-05,
        5.900859832763672e-06
      ],
      "type": "VEC2"
    },
    {
      "bufferView": 1,
      "byteOffset": 229440,
      "componentType": 5126,
      "count": 14340,
      "max": [
        0.9847091436386108,
        0.9999921321868896
      ],
      "min": [
        3.218650817871094e-05,
        5.900859832763672e-06
      ],
      "type": "VEC2"
    },
    {
      "bufferView": 0,
      "componentType": 5125,
      "count": 60000,
      "type": "SCALAR"
    },
    {
      "bufferView": 4,
      "componentType": 5126,
      "count": 2,
      "max": [
        1.0,
        0.0,
        0.0,
        0.0,
        0.0,
        1.0,
        0.0,
        0.0,
        0.0,
        0.0,
        1.0,
        0.0,
        0.0,
        0.0,
        0.0,
        1.0
      ],
      "min": [
        1.0,
        0.0,
        0.0,
        0.0,
        0.0,
        1.0,
        0.0,
        0.0,
        0.0,
        0.0,
        1.0,
        0.0,
        0.0,
        0.0,
        0.0,
        1.0
      ],
      "type": "MAT4"
    }
  ],
  "asset": {
    "extras": {
      "author": "Jungle Jim (https://sketchfab.com/jungle_jim)",
      "license": "CC-BY-4.0 (http://creativecommons.org/licenses/by/4.0/)",
      "source": "https://sketchfab.com/3d-models/walkie-talkie-26308fa205d7441b9f8e9bdd767459f7",
      "title": "Walkie-Talkie"
    },
    "generator": "Sketchfab-17.8.0",
    "version": "2.0"
  },
  "bufferViews": [
    {
      "buffer": 0,
      "byteLength": 240000,
      "name": "floatBufferViews",
      "target": 34963
    },
    {
      "buffer": 0,
      "byteLength": 344160,
      "byteOffset": 240000,
      "byteStride": 8,
      "name": "floatBufferViews",
      "target": 34962
    },
    {
      "buffer": 0,
      "byteLength": 344160,
      "byteOffset": 584160,
      "byteStride": 12,
      "name": "floatBufferViews",
      "target": 34962
    },
    {
      "buffer": 0,
      "byteLength": 229440,
      "byteOffset": 928320,
      "byteStride": 16,
      "name": "floatBufferViews",
      "target": 34962
    },
    {
      "buffer": 0,
      "byteLength": 128,
      "byteOffset": 1157760,
      "name": "floatBufferViews"
    }
  ],
  "buffers": [
    {
      "byteLength": 1157888,
      "uri": "scene.bin"
    }
  ],
  "images": [
    {
      "uri": "textures/node_1_Merged0_LOD0_Bake_baseColor.png"
    },
    {
      "uri": "textures/node_1_Merged0_LOD0_Bake_metallicRoughness.png"
    },
    {
      "uri": "textures/node_1_Merged0_LOD0_Bake_normal.png"
    }
  ],
  "materials": [
    {
      "doubleSided": true,
      "name": "node_1_Merged0_LOD0_Bake",
      "normalTexture": {
        "index": 2
      },
      "pbrMetallicRoughness": {
        "baseColorTexture": {
          "index": 0
        },
        "metallicRoughnessTexture": {
          "index": 1
        },
        "roughnessFactor": 0.13144048848134596
      }
    }
  ],
  "meshes": [
    {
      "name": "node_0_node_1_Merged0_LOD0_Bake_0",
      "primitives": [
        {
          "attributes": {
            "NORMAL": 1,
            "POSITION": 0,
            "TANGENT": 2,
            "TEXCOORD_0": 3,
            "TEXCOORD_1": 4,
            "TEXCOORD_2": 5
          },
          "indices": 6,
          "material": 0,
          "mode": 4
        }
      ]
    }
  ],
  "nodes": [
    {
      "children": [
        1
      ],
      "matrix": [
        0.9795676469802856,
        -0.010646415874362037,
        0.2008330523967743,
        0.0,
        -0.2008444368839264,
        -2.1752003285348465e-16,
        0.9796231389045715,
        0.0,
        -0.010429475456476212,
        -0.9999433159828186,
        -0.002138273324817641,
        0.0,
        0.0,
        0.0,
        0.0,
        1.0
      ],
      "name": "Sketchfab_model"
    },
    {
      "children": [
        2
      ],
      "matrix": [
        0.009999999776482582,
        0.0,
        0.0,
        0.0,
        0.0,
        -0.009999999776482582,
        0.0,
        0.0,
        0.0,
        0.0,
        -0.009999999776482582,
        0.0,
        0.0,
        0.0,
        0.0,
        1.0
      ],
      "name": "134655916bd143efbcb51daa0ced2fa4.fbx"
    },
    {
      "children": [
        3
      ],
      "name": "RootNode"
    },
    {
      "children": [
        4
      ],
      "name": "Object_3"
    },
    {
      "children": [
        5
      ],
      "name": "_rootJoint"
    },
    {
      "children": [
        6
      ],
      "name": "node_0_00"
    },
    {
      "children": [
        7
      ],
      "matrix": [
        1.0,
        0.0,
        0.0,
        0.0,
        0.0,
        -1.3315804620176607e-07,
        0.9999999403953463,
        0.0,
        0.0,
        -0.9999999403953463,
        -1.3315804620176607e-07,
        0.0,
        0.0,
        0.0,
        0.0,
        1.0
      ],
      "name": "node_0"
    },
    {
      "mesh": 0,
      "name": "node_0_node_1_Merged0_LOD0_Bake_0"
    }
  ],
  "samplers": [
    {
      "magFilter": 9729,
      "minFilter": 9987,
      "wrapS": 10497,
      "wrapT": 10497
    }
  ],
  "scene": 0,
  "scenes": [
    {
      "name": "Sketchfab_Scene",
      "nodes": [
        0
      ]
    }
  ],
  "skins": [
    {
      "inverseBindMatrices": 7,
      "joints": [
        4,
        5
      ],
      "skeleton": 4
    }
  ],
  "textures": [
    {
      "sampler": 0,
      "source": 0
    },
    {
      "sampler": 0,
      "source": 1
    },
    {
      "sampler": 0,
      "source": 2
    }
  ]
}
